<svg width="433" height="433" viewBox="0 0 433 433" fill="none" xmlns="http://www.w3.org/2000/svg">
<path d="M216.5 0C188.069 0 159.916 5.59994 133.649 16.4801C107.382 27.3602 83.5153 43.3075 63.4114 63.4114C22.8098 104.013 0 159.081 0 216.5C0 273.919 22.8098 328.987 63.4114 369.589C83.5153 389.692 107.382 405.64 133.649 416.52C159.916 427.4 188.069 433 216.5 433C273.919 433 328.987 410.19 369.589 369.589C410.19 328.987 433 273.919 433 216.5C433 188.069 427.4 159.916 416.52 133.649C405.64 107.382 389.692 83.5153 369.589 63.4114C349.485 43.3075 325.618 27.3602 299.351 16.4801C273.084 5.59994 244.931 0 216.5 0V0ZM307.43 307.43L194.85 238.15V108.25H227.325V220.83L324.75 279.285L307.43 307.43Z" fill="white"/>
</svg>
