<svg width="446" height="446" viewBox="0 0 446 446" fill="none" xmlns="http://www.w3.org/2000/svg">
<path d="M223 0C252.572 0 280.932 11.7473 301.842 32.6576C322.753 53.5679 334.5 81.9284 334.5 111.5C334.5 141.072 322.753 169.432 301.842 190.342C280.932 211.253 252.572 223 223 223C193.428 223 165.068 211.253 144.158 190.342C123.247 169.432 111.5 141.072 111.5 111.5C111.5 81.9284 123.247 53.5679 144.158 32.6576C165.068 11.7473 193.428 0 223 0V0ZM223 278.75C346.208 278.75 446 328.646 446 390.25V446H0V390.25C0 328.646 99.7925 278.75 223 278.75Z" fill="white"/>
</svg>
