<svg width="222" height="222" viewBox="0 0 222 222" fill="none" xmlns="http://www.w3.org/2000/svg">
<path d="M160.333 74H123.333V141.833C123.333 150.011 120.085 157.853 114.302 163.636C108.52 169.418 100.678 172.667 92.5 172.667C84.3225 172.667 76.4799 169.418 70.6975 163.636C64.9152 157.853 61.6667 150.011 61.6667 141.833C61.6667 133.656 64.9152 125.813 70.6975 120.031C76.4799 114.248 84.3225 111 92.5 111C99.53 111 105.82 113.343 111 117.167V49.3333H160.333V74ZM197.333 0H24.6667C18.1247 0 11.8506 2.5988 7.2247 7.2247C2.5988 11.8506 0 18.1247 0 24.6667V197.333C0 203.875 2.5988 210.149 7.2247 214.775C11.8506 219.401 18.1247 222 24.6667 222H197.333C203.875 222 210.149 219.401 214.775 214.775C219.401 210.149 222 203.875 222 197.333V24.6667C222 18.1247 219.401 11.8506 214.775 7.2247C210.149 2.5988 203.875 0 197.333 0Z" fill="white"/>
</svg>
