<svg width="309" height="309" viewBox="0 0 309 309" fill="none" xmlns="http://www.w3.org/2000/svg">
<path d="M201.931 142.912L188.026 157.126C176.902 168.25 169.95 177.675 169.95 200.85H139.05V193.125C139.05 175.975 146.002 160.525 157.126 149.401L176.284 129.934C182.001 124.372 185.4 116.647 185.4 108.15C185.4 99.9548 182.144 92.0953 176.35 86.3004C170.555 80.5055 162.695 77.25 154.5 77.25C146.305 77.25 138.445 80.5055 132.65 86.3004C126.856 92.0953 123.6 99.9548 123.6 108.15H92.7C92.7 91.7596 99.211 76.0405 110.801 64.4508C122.391 52.861 138.11 46.35 154.5 46.35C170.89 46.35 186.609 52.861 198.199 64.4508C209.789 76.0405 216.3 91.7596 216.3 108.15C216.278 121.178 211.114 133.671 201.931 142.912V142.912ZM169.95 262.65H139.05V231.75H169.95V262.65ZM154.5 0C134.211 0 114.12 3.99626 95.3754 11.7606C76.6306 19.525 59.5987 30.9054 45.252 45.252C16.2776 74.2264 0 113.524 0 154.5C0 195.476 16.2776 234.774 45.252 263.748C59.5987 278.095 76.6306 289.475 95.3754 297.239C114.12 305.004 134.211 309 154.5 309C195.476 309 234.774 292.722 263.748 263.748C292.722 234.774 309 195.476 309 154.5C309 69.0615 239.475 0 154.5 0Z" fill="white"/>
</svg>
